<?xml version="1.0" standalone="no"?>
<!DOCTYPE svg PUBLIC "-//W3C//DTD SVG 20010904//EN"
 "http://www.w3.org/TR/2001/REC-SVG-20010904/DTD/svg10.dtd">
<svg version="1.0" xmlns="http://www.w3.org/2000/svg"
 width="512.000000pt" height="512.000000pt" viewBox="0 0 512.000000 512.000000"
 preserveAspectRatio="xMidYMid meet">
<metadata>
Created by potrace 1.14, written by Peter Selinger 2001-2017
</metadata>
<g transform="translate(0.000000,512.000000) scale(0.100000,-0.100000)"
fill="#000000" stroke="none">
<path d="M1241 5104 c-164 -44 -300 -188 -328 -349 -5 -27 -9 -396 -9 -820 l1
-770 198 -1 c108 0 197 3 197 8 0 5 -9 26 -19 46 -22 43 -51 137 -57 185 -2
17 -7 52 -12 77 -14 80 -7 337 13 430 58 281 215 523 450 698 114 85 357 186
467 194 16 1 32 7 36 13 3 5 6 76 7 157 l0 148 -445 -1 c-356 0 -456 -3 -499
-15z"/>
<path d="M2487 5113 c-6 -12 -2 -291 4 -297 3 -3 25 -8 50 -11 341 -41 681
-214 929 -472 123 -128 208 -249 280 -398 114 -234 158 -417 164 -675 l2 -95
149 0 150 0 1 775 c0 544 -3 790 -11 825 -38 170 -184 314 -349 344 -68 13
-1362 16 -1369 4z"/>
<path d="M2489 4508 c-1 -2 -2 -304 -3 -671 -1 -661 -1 -668 19 -672 42 -8
1100 -2 1106 7 6 9 3 132 -6 208 -21 190 -84 372 -183 530 -67 105 -105 153
-188 235 -119 118 -239 201 -374 259 -36 15 -74 31 -85 36 -22 10 -119 38
-156 45 -13 3 -40 8 -59 11 -19 3 -43 8 -52 11 -10 2 -19 3 -19 1z"/>
<path d="M2090 4481 c-252 -81 -465 -287 -540 -521 -47 -146 -59 -361 -29
-510 31 -152 128 -253 269 -278 165 -30 304 34 363 166 61 135 18 293 -100
372 -50 32 -88 45 -168 56 -93 12 -144 59 -150 136 -5 70 25 120 90 149 69 31
177 13 345 -55 13 -5 15 26 15 246 -1 290 6 272 -95 239z"/>
<path d="M950 2862 l-46 -3 2 -1247 c1 -1366 -2 -1282 60 -1388 59 -101 178
-187 294 -213 29 -7 493 -10 1310 -10 l1265 0 67 22 c79 27 160 81 206 137 35
42 84 135 97 185 5 17 9 589 10 1273 l1 1242 -153 0 -153 0 -1 -32 c0 -18 -2
-42 -4 -53 -2 -11 -8 -65 -15 -120 -9 -78 -46 -275 -64 -340 -22 -82 -31 -111
-53 -175 -139 -414 -362 -771 -672 -1080 -375 -373 -799 -609 -1325 -735 -124
-30 -170 -27 -215 13 -38 35 -52 65 -53 112 -1 75 59 140 144 155 94 17 252
63 368 107 405 153 779 422 1040 747 19 24 40 49 47 56 22 23 151 221 195 300
116 206 232 519 262 705 3 19 8 45 10 56 4 20 8 42 21 134 3 19 7 61 10 93 l4
57 -662 0 c-364 0 -952 1 -1307 3 -355 1 -665 1 -690 -1z"/>
</g>
</svg>
