<svg xmlns="http://www.w3.org/2000/svg" viewBox="0 0 512 512">
  <defs>
    <linearGradient id="a" x1="0" x2="1" y1="0" y2="0" gradientTransform="scale(133.49751) rotate(90 -.8 3.307)" gradientUnits="userSpaceOnUse" spreadMethod="pad">
      <stop offset="0" stop-color="#fff33b"/>
      <stop offset=".133" stop-color="#fdc70c"/>
      <stop offset=".281" stop-color="#fdc70c"/>
      <stop offset=".669" stop-color="#f3903f"/>
      <stop offset=".888" stop-color="#ed683c"/>
      <stop offset="1" stop-color="#e93e3a"/>
    </linearGradient>
    <linearGradient id="b" x1="0" x2="1" y1="0" y2="0" gradientTransform="scale(-121.29885 121.29885) rotate(-60 3.721 4.559)" gradientUnits="userSpaceOnUse" spreadMethod="pad">
      <stop offset="0" stop-color="#fff33b"/>
      <stop offset=".133" stop-color="#fdc70c"/>
      <stop offset=".281" stop-color="#fdc70c"/>
      <stop offset=".669" stop-color="#f3903f"/>
      <stop offset=".888" stop-color="#ed683c"/>
      <stop offset="1" stop-color="#e93e3a"/>
    </linearGradient>
    <clipPath id="c" clipPathUnits="userSpaceOnUse">
      <path d="M0 1200h1500V0H0Z"/>
    </clipPath>
  </defs>
  <text font-family="MADE Outer Sans" font-size="97.064" font-weight="400" style="-inkscape-font-specification:MADEOuterSans" transform="translate(604.429 351.255) scale(3.05058)"><tspan x="0 125.115 216.16 308.856 408.54 515.213 602.473 709.146 807.86" y="0">METROLOGY</tspan></text>
  <text font-family="Montserrat" font-size="37.379" font-weight="400" style="-inkscape-font-specification:Montserrat-Regular" transform="translate(2482.536 513.738) scale(3.05058)"><tspan x="0 55.06 111.764 168.319 219.267" y="0">PARTS</tspan></text>
  <path fill="url(#a)" d="M313.479 660.449v-91.107c0-11.707 9.49-21.195 21.196-21.195 11.707 0 21.196 9.488 21.196 21.195v91.107c0 11.705-9.489 21.196-21.196 21.196-11.706 0-21.196-9.491-21.196-21.196" transform="matrix(3.05058 0 0 -3.05058 -591.491 2124.9)"/>
  <path fill="url(#b)" d="M201.694 660.449v-91.107c0-11.707 9.491-21.195 21.196-21.195 11.707 0 21.196 9.488 21.196 21.195v91.107c0 11.705-9.489 21.196-21.196 21.196-11.705 0-21.196-9.491-21.196-21.196" transform="matrix(3.05058 0 0 -3.05058 -591.491 2124.9)"/>
  <g clip-path="url(#c)" transform="matrix(3.05058 0 0 -3.05058 -591.491 2124.9)">
    <path fill="#ed1c24" d="M352.163 672.42c-6.613 9.66-19.804 12.13-29.463 5.516l-54.72-37.462c-9.66-6.614-12.13-19.804-5.518-29.464 6.614-9.659 19.805-12.129 29.465-5.516l54.72 37.461c9.66 6.613 12.129 19.805 5.516 29.465"/>
  </g>
</svg>